<?xml version="1.0" encoding="utf-8"?>
<!-- Generator: Adobe Illustrator 18.1.1, SVG Export Plug-In . SVG Version: 6.00 Build 0)  -->
<svg version="1.1" id="Layer_1" xmlns="http://www.w3.org/2000/svg" xmlns:xlink="http://www.w3.org/1999/xlink" x="0px" y="0px"
	 viewBox="0 0 35 30" enable-background="new 0 0 35 30" xml:space="preserve">
<path fill="#010101" d="M35,9.7v16.9c0,0.9-0.3,1.7-0.9,2.4c-0.6,0.7-1.3,1-2.2,1H3.1c-0.9,0-1.6-0.3-2.2-1C0.3,28.3,0,27.5,0,26.6
	V9.7c0.6,0.7,1.2,1.3,2,1.9c4.7,3.5,7.9,5.9,9.7,7.4c0.7,0.6,1.3,1.1,1.8,1.4c0.5,0.3,1.1,0.7,1.8,1c0.8,0.3,1.5,0.5,2.1,0.5h0
	c0.7,0,1.4-0.2,2.1-0.5c0.8-0.3,1.4-0.7,1.8-1c0.5-0.3,1.1-0.8,1.8-1.4c2.2-1.7,5.5-4.2,9.7-7.4C33.8,11,34.4,10.4,35,9.7z M35,3.4
	c0,1.1-0.3,2.2-1,3.2s-1.4,1.9-2.4,2.6c-4.9,3.7-7.9,6-9.1,6.9c-0.1,0.1-0.4,0.3-0.8,0.6c-0.4,0.3-0.8,0.6-1.1,0.8s-0.6,0.4-1,0.7
	c-0.4,0.3-0.8,0.4-1.1,0.6c-0.4,0.1-0.7,0.2-1,0.2h0c-0.3,0-0.6-0.1-1-0.2c-0.4-0.1-0.7-0.3-1.1-0.6s-0.7-0.5-1-0.7
	s-0.6-0.5-1.1-0.8c-0.4-0.3-0.7-0.6-0.8-0.6c-1.2-0.9-2.9-2.2-5.1-3.9s-3.6-2.7-4-3C2.6,8.7,1.8,7.8,1.1,6.8S0,4.8,0,3.9
	c0-1.1,0.3-2,0.8-2.8S2.1,0,3.1,0h28.8c0.8,0,1.6,0.3,2.2,1S35,2.5,35,3.4z"/>
</svg>
