<?xml version="1.0" encoding="utf-8"?>
<!-- Generator: Adobe Illustrator 18.1.1, SVG Export Plug-In . SVG Version: 6.00 Build 0)  -->
<svg version="1.1" id="Layer_1" xmlns="http://www.w3.org/2000/svg" xmlns:xlink="http://www.w3.org/1999/xlink" x="0px" y="0px"
	 viewBox="0 0 30 30" enable-background="new 0 0 30 30" xml:space="preserve">
<path fill="#931A1D" d="M30,25.5v3c0,0.4-0.1,0.8-0.4,1.1S29.1,30,28.8,30H1.2c-0.3,0-0.6-0.1-0.9-0.4S0,28.9,0,28.5v-3
	c0-0.4,0.1-0.8,0.4-1.1S0.9,24,1.2,24h27.5c0.3,0,0.6,0.1,0.9,0.4S30,25.1,30,25.5z M30,13.5v3c0,0.4-0.1,0.8-0.4,1.1
	S29.1,18,28.8,18H1.2c-0.3,0-0.6-0.1-0.9-0.4S0,16.9,0,16.5v-3c0-0.4,0.1-0.8,0.4-1.1S0.9,12,1.2,12h27.5c0.3,0,0.6,0.1,0.9,0.4
	S30,13.1,30,13.5z M30,1.5v3c0,0.4-0.1,0.8-0.4,1.1S29.1,6,28.8,6H1.2C0.9,6,0.6,5.9,0.4,5.6S0,4.9,0,4.5v-3c0-0.4,0.1-0.8,0.4-1.1
	S0.9,0,1.2,0h27.5c0.3,0,0.6,0.1,0.9,0.4S30,1.1,30,1.5z"/>
</svg>
