<?xml version="1.0" encoding="utf-8"?>
<!-- Generator: Adobe Illustrator 18.1.1, SVG Export Plug-In . SVG Version: 6.00 Build 0)  -->
<svg version="1.1" id="Layer_1" xmlns="http://www.w3.org/2000/svg" xmlns:xlink="http://www.w3.org/1999/xlink" x="0px" y="0px"
	 viewBox="0 0 38 30.2" enable-background="new 0 0 38 30.2" xml:space="preserve">
<path d="M38,25.6v3c0,0.4-0.2,0.8-0.5,1.1c-0.3,0.3-0.7,0.4-1.1,0.4H1.6c-0.4,0-0.8-0.1-1.1-0.4C0.2,29.4,0,29,0,28.6v-3
	c0-0.4,0.2-0.8,0.5-1.1c0.3-0.3,0.7-0.4,1.1-0.4h34.8c0.4,0,0.8,0.1,1.1,0.4C37.8,24.8,38,25.2,38,25.6z M38,13.6v3
	c0,0.4-0.2,0.8-0.5,1.1c-0.3,0.3-0.7,0.4-1.1,0.4H1.6c-0.4,0-0.8-0.1-1.1-0.4C0.2,17.4,0,17,0,16.6v-3c0-0.4,0.2-0.8,0.5-1.1
	c0.3-0.3,0.7-0.4,1.1-0.4h34.8c0.4,0,0.8,0.1,1.1,0.4C37.8,12.8,38,13.2,38,13.6z M38,1.6v3c0,0.4-0.2,0.8-0.5,1.1
	c-0.3,0.3-0.7,0.4-1.1,0.4H1.6C1.2,6.1,0.8,6,0.5,5.7C0.2,5.4,0,5,0,4.6v-3c0-0.4,0.2-0.8,0.5-1.1s0.7-0.4,1.1-0.4h34.8
	c0.4,0,0.8,0.1,1.1,0.4C37.8,0.8,38,1.2,38,1.6z"/>
</svg>
