<?xml version="1.0" encoding="utf-8"?>
<!-- Generator: Adobe Illustrator 18.1.1, SVG Export Plug-In . SVG Version: 6.00 Build 0)  -->
<svg version="1.1" id="Layer_1" xmlns="http://www.w3.org/2000/svg" xmlns:xlink="http://www.w3.org/1999/xlink" x="0px" y="0px"
	 viewBox="0 0 30 30" enable-background="new 0 0 30 30" xml:space="preserve">
<path fill="#931A1D" d="M25,20.8c0-0.1,0-0.2,0-0.3c0-0.1-0.3-0.3-0.8-0.6c-0.5-0.3-1-0.6-1.7-1l-1-0.6c-0.1,0-0.2-0.1-0.4-0.3
	c-0.2-0.1-0.3-0.2-0.5-0.3c-0.1-0.1-0.3-0.1-0.4-0.1c-0.2,0-0.5,0.2-0.9,0.6c-0.4,0.4-0.7,0.8-1.1,1.3c-0.4,0.4-0.7,0.6-0.9,0.6
	c-0.1,0-0.2,0-0.3-0.1s-0.2-0.1-0.3-0.1s-0.2-0.1-0.3-0.2s-0.2-0.1-0.3-0.2c-1.3-0.7-2.4-1.5-3.3-2.5c-0.9-0.9-1.8-2-2.5-3.3
	c0,0-0.1-0.1-0.2-0.3c-0.1-0.1-0.1-0.3-0.2-0.3S9.8,13.2,9.7,13c0-0.1-0.1-0.2-0.1-0.3c0-0.2,0.1-0.4,0.4-0.7
	c0.3-0.3,0.6-0.5,0.9-0.8c0.3-0.2,0.6-0.5,0.9-0.8c0.3-0.3,0.4-0.5,0.4-0.7c0-0.1,0-0.3-0.1-0.4c-0.1-0.1-0.2-0.3-0.3-0.5
	c-0.1-0.2-0.2-0.3-0.3-0.4c0-0.1-0.1-0.3-0.3-0.6S11,7.4,10.8,7.1c-0.2-0.3-0.3-0.6-0.5-0.9S9.9,5.6,9.8,5.4C9.6,5.2,9.5,5.1,9.5,5
	C9.4,5,9.3,5,9.2,5c-0.6,0-1.3,0.1-2,0.4C6.6,5.7,6.1,6.3,5.6,7.3C5.2,8.2,5,9.1,5,9.8c0,0.2,0,0.4,0,0.7c0,0.2,0.1,0.4,0.1,0.6
	c0,0.2,0.1,0.4,0.2,0.6c0.1,0.3,0.1,0.5,0.2,0.6c0,0.1,0.1,0.3,0.2,0.6s0.2,0.5,0.2,0.6c0.8,2.1,2.2,4.2,4.2,6.3s4.1,3.4,6.3,4.2
	c0.1,0,0.3,0.1,0.6,0.2s0.5,0.2,0.6,0.2s0.3,0.1,0.6,0.2c0.3,0.1,0.5,0.1,0.6,0.2c0.2,0,0.4,0.1,0.6,0.1s0.5,0,0.7,0
	c0.7,0,1.6-0.2,2.5-0.7s1.6-1,1.8-1.6C24.8,22.1,25,21.4,25,20.8z M30,5.6v18.8c0,1.5-0.6,2.9-1.7,4c-1.1,1.1-2.4,1.7-4,1.7H5.6
	c-1.5,0-2.9-0.6-4-1.7S0,25.9,0,24.4V5.6c0-1.5,0.6-2.9,1.7-4S4,0,5.6,0h18.8c1.5,0,2.9,0.6,4,1.7C29.4,2.8,30,4.1,30,5.6z"/>
</svg>
